<?xml version="1.0" encoding="utf-8"?>
<!-- Generator: Adobe Illustrator 23.0.4, SVG Export Plug-In . SVG Version: 6.00 Build 0)  -->
<svg version="1.1" id="Logo" xmlns="http://www.w3.org/2000/svg" xmlns:xlink="http://www.w3.org/1999/xlink" x="0px" y="0px"
	 viewBox="0 0 319.1 397" style="enable-background:new 0 0 319.1 397;" xml:space="preserve">
<style type="text/css">
	.st0{fill:#FFFFFF;}
	.st1{font-family:'ArialMT';}
	.st2{font-size:24.66px;}
</style>
<path class="st0" d="M185.3,147.1H99.1c0.3,16.4,2.4,32.7,6.3,48.6H179C183,179.8,185.1,163.5,185.3,147.1z"/>
<path class="st0" d="M176.1,205.8h-67.9c4.9,15,11.5,26.8,18.6,33.5c5.2,4.9,10.2,7.2,15.3,7.2s10.2-2.3,15.3-7.2
	s10.1-12.4,14.2-21.9C173.3,213.8,174.8,209.9,176.1,205.8z"/>
<path class="st0" d="M189.2,88c3.7,15.9,5.7,32.2,6,48.6h52.9c-0.8-17.1-5.8-33.8-14.6-48.6H189.2z"/>
<path class="st0" d="M189.2,195.7h44.4c8.7-14.8,13.7-31.5,14.6-48.6h-52.9C195,163.5,193,179.8,189.2,195.7z"/>
<path class="st0" d="M180.8,62.3c2.2,5.1,4.1,10.3,5.7,15.6h40.4c-15.2-20.1-37-34.1-61.5-39.7C171.3,44.4,176.5,52.6,180.8,62.3z"
	/>
<path class="st0" d="M108.3,77.9h67.9c-4.9-15-11.5-26.8-18.6-33.5c-5.1-4.9-10.2-7.2-15.3-7.2s-10.1,2.3-15.3,7.2
	s-10,12.4-14.2,21.9C111.1,69.9,109.6,73.8,108.3,77.9z"/>
<path class="st0" d="M99,136.6h86.3c-0.3-16.4-2.4-32.7-6.3-48.6h-73.7C101.4,103.9,99.3,120.2,99,136.6z"/>
<path class="st0" d="M103.6,221.3c-2.2-5.1-4.1-10.3-5.7-15.6H57.5c15.2,20.1,37,34.1,61.5,39.6
	C113.1,239.3,107.9,231.1,103.6,221.3z"/>
<path class="st0" d="M186.5,205.8c-5.2,16.8-12.2,30.6-21.1,39.6c24.6-5.5,46.4-19.5,61.5-39.6H186.5z"/>
<path class="st0" d="M50.8,88c-8.7,14.8-13.7,31.5-14.5,48.6h52.9c0.3-16.4,2.3-32.7,6-48.6H50.8z"/>
<path class="st0" d="M89.1,147.1H36.2c0.8,17.1,5.8,33.8,14.5,48.6h44.4C91.4,179.8,89.4,163.5,89.1,147.1z"/>
<path class="st0" d="M97.9,77.9c5.2-16.8,12.2-30.5,21.1-39.6c-24.6,5.5-46.4,19.5-61.6,39.6H97.9z"/>
<path class="st0" d="M59.6,247.8l2,3.1c-1.4,1.1-3.1,1.6-4.8,1.6c-4-0.5-7.1-3.6-7.6-7.6c-0.1-2.4,0.8-4.8,2.4-6.5
	c1.5-2,3.7-3.4,6.2-3.8c2.3-0.3,4.5,0.5,6.2,2c1.6,1.2,2.6,3,2.9,4.9c0.1,1.3-0.1,2.5-0.7,3.7l-3.3-1.6c0.4-0.8,0.5-1.7,0.4-2.5
	c-0.2-0.9-0.7-1.6-1.4-2.2c-0.9-0.8-2.2-1.2-3.4-1c-1.2,0.2-2.5,1.1-3.9,2.7s-2,3.1-2.1,4.4c0,1.2,0.6,2.4,1.5,3.1
	c0.7,0.6,1.6,0.9,2.5,0.9C57.7,249,58.8,248.5,59.6,247.8z"/>
<path class="st0" d="M62.3,257.9l9.3-15L83,250l-1.5,2.6l-8.2-5.1l-2.1,3.3l7.7,4.8l-1.6,2.5l-7.7-4.8l-2.5,4.1l8.5,5.3l-1.6,2.5
	L62.3,257.9z"/>
<path class="st0" d="M78.5,267.6l7.2-16.1l7,3.1c1.3,0.5,2.5,1.2,3.6,2.1c0.7,0.6,1.1,1.5,1.2,2.4c0.1,1,0,2-0.4,2.9
	c-0.5,1.1-1.3,2-2.4,2.5c-1.3,0.5-2.6,0.5-3.9,0c0.5,0.7,0.9,1.4,1.2,2.1c0.3,1.1,0.6,2.3,0.7,3.5l0.6,4l-4-1.8l-0.8-4.5
	c-0.2-1.1-0.4-2.1-0.7-3.1c-0.1-0.4-0.4-0.8-0.7-1.1c-0.5-0.4-1-0.7-1.6-1l-0.7-0.3l-3,6.7L78.5,267.6z M85.9,259.7l2.5,1.1
	c1,0.5,2,0.9,3.1,1.1c0.4,0.1,0.9,0,1.2-0.3c0.4-0.3,0.7-0.6,0.9-1.1c0.2-0.5,0.3-1,0.1-1.5c-0.2-0.5-0.5-0.9-1-1.2
	c-0.2-0.2-1-0.5-2.4-1.1l-2.6-1.1L85.9,259.7z"/>
<path class="st0" d="M100.8,276.4l4.1-14.1l-5.1-1.5l0.8-2.9l13.7,4l-0.8,2.9l-5.1-1.5l-4.1,14.1L100.8,276.4z"/>
<path class="st0" d="M113.2,279.6l3.4-17.3l3.6,0.7l-3.4,17.3L113.2,279.6z"/>
<path class="st0" d="M121.7,281.2l1.8-17.6l12.3,1.3l-0.3,3l-8.7-0.9l-0.4,4.2l7.5,0.8l-0.3,3l-7.5-0.8l-0.8,7.5L121.7,281.2z"/>
<path class="st0" d="M138.5,282.6l0.3-17.6l3.6,0.1l-0.3,17.6H138.5z"/>
<path class="st0" d="M158.1,275.2l3.6,0.8c-0.9,4.3-5.2,7.1-9.5,6.1c-1.3-0.3-2.5-0.9-3.5-1.7c-1.8-1.6-2.8-3.9-2.9-6.3
	c-0.4-2.5,0.3-5,1.7-7c1.4-1.8,3.6-2.9,5.9-3c2-0.3,3.9,0.3,5.5,1.4c1,0.8,1.7,1.9,2.1,3.1l-3.5,1.1c-0.3-0.8-0.8-1.5-1.5-2
	c-0.7-0.5-1.6-0.7-2.5-0.6c-1.2,0.1-2.4,0.7-3.1,1.7c-0.8,1.4-1.1,3-0.9,4.6c0.2,2.2,0.7,3.8,1.6,4.6c0.9,0.9,2.1,1.3,3.3,1.1
	c0.9-0.1,1.8-0.5,2.4-1.1C157.6,277.4,158,276.4,158.1,275.2z"/>
<path class="st0" d="M183,276.9l-3.9,0.9l-2.4-3.5l-7,1.6l-0.5,4.2l-3.8,0.9l2.8-18.8l3.7-0.9L183,276.9z M174.9,271.6l-3.9-5.8
	l-0.9,6.9L174.9,271.6z"/>
<path class="st0" d="M188.6,274.8l-5-13.8l-5,1.8l-1-2.8l13.4-4.9l1,2.8l-5,1.8l5,13.8L188.6,274.8z"/>
<path class="st0" d="M200.5,270l-7.5-16l3.3-1.6l7.5,16L200.5,270z"/>
<path class="st0" d="M203.3,259.2c-0.9-1.3-1.4-2.8-1.6-4.3c-0.1-1-0.1-2,0.2-2.9c0.2-0.9,0.6-1.8,1.2-2.6c0.8-1.1,1.8-1.9,3-2.6
	c2-1.3,4.4-1.8,6.7-1.2c4.8,1.7,7.7,6.5,7,11.5c-1.4,4.6-6.1,7.5-10.9,6.6C206.4,263,204.4,261.4,203.3,259.2z M206.4,257.2
	c0.8,1.5,2,2.6,3.6,3.1c1.3,0.4,2.7,0.2,3.9-0.5c1.2-0.7,2-1.8,2.2-3.2c0.2-1.6-0.2-3.3-1.2-4.7c-0.7-1.5-2-2.6-3.5-3.2
	c-2.7-0.7-5.5,1-6.2,3.8c0,0,0,0,0,0C205.1,254.2,205.5,255.9,206.4,257.2L206.4,257.2z"/>
<path class="st0" d="M226.7,254.7l-11.3-13.6l2.7-2.3l13.2,4.4l-7.5-9.1l2.6-2.2l11.3,13.6l-2.8,2.3l-12.9-4.2l7.4,8.9L226.7,254.7z
	"/>
<path class="st0" d="M60.2,49.1L48.7,35.7l2.8-2.4L63,46.8L60.2,49.1z"/>
<path class="st0" d="M61.5,40.3l2.7-2.3c0.7,0.7,1.6,1.2,2.5,1.3c0.9,0,1.9-0.3,2.6-0.8c0.8-0.5,1.4-1.2,1.7-2.1
	c0.2-0.6,0.1-1.3-0.2-1.9c-0.2-0.3-0.6-0.6-0.9-0.7c-0.5-0.1-1,0-1.5,0.1c-0.4,0.1-1.4,0.5-2.8,1c-1.4,0.6-2.9,1-4.4,0.9
	c-1.4-0.1-2.6-0.9-3.4-2c-0.5-0.7-0.8-1.6-0.8-2.5c0-1,0.3-1.9,0.8-2.8c0.7-1,1.5-1.9,2.5-2.5c1.4-1.2,3.2-1.8,5-1.8
	c1.5,0.2,2.9,1,3.7,2.3l-2.9,2.2c-0.5-0.6-1.2-0.9-1.9-1c-0.8,0-1.6,0.3-2.2,0.8c-0.7,0.5-1.3,1.2-1.7,2c-0.2,0.4-0.1,0.9,0.2,1.2
	c0.2,0.3,0.6,0.6,1.1,0.6c1.2-0.1,2.3-0.5,3.4-1c1.3-0.6,2.6-1,3.9-1.2c0.9-0.1,1.8,0,2.7,0.3c0.9,0.4,1.7,1.1,2.2,1.9
	c1.2,1.7,1.3,4.1,0.1,5.8c-0.8,1.1-1.7,2-2.8,2.8c-1.5,1.2-3.3,1.8-5.2,1.8C64.1,42.5,62.6,41.7,61.5,40.3z"/>
<path class="st0" d="M74.4,27.7c-0.7-1.4-1.2-2.9-1.3-4.4c0-1,0.1-2,0.4-2.9c0.3-0.9,0.7-1.8,1.3-2.5c0.9-1,1.9-1.8,3.1-2.3
	c2.1-1.2,4.5-1.4,6.8-0.7c2.3,0.9,4.2,2.6,5.2,4.9c1.2,2.1,1.6,4.6,0.9,7c-0.8,2.2-2.4,4-4.6,5c-2.1,1.2-4.5,1.5-6.8,0.8
	C77.2,31.7,75.3,29.9,74.4,27.7z M77.7,25.9c0.6,1.5,1.8,2.7,3.3,3.4c2.6,0.9,5.4-0.4,6.3-3c0-0.1,0.1-0.2,0.1-0.3
	c0.3-1.6,0-3.3-0.8-4.7c-0.6-1.5-1.8-2.7-3.3-3.4c-2.7-0.9-5.6,0.6-6.4,3.3c0,0,0,0,0,0C76.5,22.8,76.8,24.5,77.7,25.9z"/>
<path class="st0" d="M112.7,18.3l0.9,3L102,24.6c-0.2-1.2-0.1-2.4,0.2-3.6c0.6-1.8,1.5-3.5,2.6-5.1c0.8-1.1,1.4-2.3,2-3.6
	c0.3-0.7,0.3-1.5,0.1-2.2c-0.1-0.6-0.5-1.2-1.1-1.5c-0.6-0.3-1.3-0.3-1.9,0c-0.6,0.1-1.1,0.5-1.4,1.1c-0.3,0.7-0.4,1.5-0.1,2.2
	l-3.4,0.6c-0.4-1.5-0.1-3.1,0.8-4.4c0.9-1.1,2.2-1.9,3.6-2.3c1.4-0.5,3-0.4,4.4,0.2c1.2,0.6,2.1,1.7,2.4,3c0.2,0.7,0.3,1.5,0.2,2.3
	c-0.1,0.9-0.4,1.7-0.7,2.6c-0.5,0.9-1,1.8-1.6,2.7c-0.8,1.2-1.3,2.1-1.4,2.4c-0.2,0.4-0.3,0.7-0.4,1.1L112.7,18.3z"/>
<path class="st0" d="M113.3,6.7l-0.5-3.1l11.6-2l0.4,2.4c-1,1.4-1.7,2.9-2.3,4.5c-0.7,1.9-1.2,3.9-1.3,5.9c-0.2,1.8-0.2,3.6,0.1,5.4
	l-3.3,0.5c-0.3-2.5-0.2-5.1,0.3-7.6c0.5-2.6,1.4-5.1,2.7-7.3L113.3,6.7z"/>
<path class="st0" d="M134.2,0.6c1.6-0.2,3.1,0.4,4.2,1.6c1.3,1.4,2,3.7,2.1,7.1c0.2,3.3-0.3,5.8-1.4,7.3c-0.9,1.3-2.4,2-4,2
	c-1.6,0.1-3.3-0.5-4.3-1.7c-1.1-1.3-1.8-3.6-2-7s0.3-5.7,1.4-7.3C131.2,1.3,132.6,0.6,134.2,0.6z M134.4,3.4c-0.4,0-0.8,0.2-1.1,0.5
	c-0.4,0.4-0.6,0.9-0.7,1.4c-0.2,1.5-0.3,3-0.1,4.4c0,1.4,0.2,2.9,0.6,4.2c0.1,0.6,0.5,1.1,0.9,1.5c0.3,0.2,0.7,0.3,1.1,0.3
	c0.4,0,0.8-0.2,1.1-0.4c0.4-0.4,0.6-0.9,0.7-1.4c0.2-1.5,0.3-2.9,0.1-4.4c0-1.4-0.2-2.9-0.6-4.2c-0.1-0.6-0.5-1.1-0.9-1.5
	C135.1,3.5,134.8,3.4,134.4,3.4L134.4,3.4z"/>
<path class="st0" d="M150,0.6c1.6,0,3.1,0.8,4,2c1.1,1.5,1.5,4,1.3,7.3s-0.9,5.7-2.2,7.1c-1.1,1.2-2.6,1.7-4.2,1.6
	c-1.6,0-3.2-0.9-4.1-2.2c-1-1.4-1.4-3.8-1.2-7.1c0.2-3.3,0.9-5.7,2.2-7.1C146.9,1,148.4,0.4,150,0.6z M149.8,3.4
	c-0.4,0-0.8,0.1-1.1,0.3c-0.4,0.4-0.7,0.8-0.8,1.4c-0.4,1.4-0.6,2.9-0.6,4.4c-0.1,1.4-0.1,2.9,0.1,4.3c0.1,0.6,0.3,1.1,0.7,1.6
	c0.3,0.3,0.7,0.4,1.1,0.4c0.4,0,0.8-0.1,1.1-0.3c0.4-0.4,0.7-0.8,0.8-1.4c0.4-1.4,0.6-2.9,0.6-4.4c0.1-1.4,0.1-2.9-0.1-4.3
	c-0.1-0.6-0.3-1.2-0.7-1.6C150.6,3.6,150.2,3.4,149.8,3.4L149.8,3.4z"/>
<path class="st0" d="M165.7,20.3l-3.4-0.6l2.1-12.6c-1.5,0.9-3.1,1.6-4.8,1.8l0.5-3c1.1-0.2,2.2-0.6,3.2-1.1c1.1-0.5,2-1.4,2.6-2.4
	l2.8,0.5L165.7,20.3z"/>
<path class="st0" d="M172.1,21.7l0.9-3.3l3.3,0.9l-0.8,3.2L172.1,21.7z M174.5,12.6l0.9-3.3l3.3,0.9l-0.9,3.3L174.5,12.6z"/>
<path class="st0" d="M190.9,24.5l-1.1,3l-11.3-4.1c0.5-1.1,1.3-2,2.2-2.7c1.6-1.1,3.3-2,5.1-2.6c1.3-0.5,2.5-1.1,3.7-1.8
	c0.6-0.4,1.1-1,1.4-1.7c0.3-0.6,0.3-1.3,0-1.9c-0.7-1.1-2-1.6-3.2-1.1c-0.7,0.4-1.2,1-1.4,1.8l-3.1-1.5c0.6-1.4,1.7-2.6,3.2-3.1
	c1.4-0.4,2.9-0.3,4.2,0.2c1.5,0.4,2.7,1.4,3.5,2.8c0.6,1.2,0.7,2.6,0.2,3.8c-0.3,0.7-0.7,1.4-1.2,2c-0.6,0.6-1.3,1.2-2.1,1.6
	c-0.9,0.5-1.9,1-2.9,1.3c-1.4,0.5-2.2,0.9-2.6,1.1c-0.4,0.2-0.7,0.4-1,0.6L190.9,24.5z"/>
<path class="st0" d="M204.9,15c1.4,0.6,2.5,1.9,2.9,3.5c0.4,1.8-0.1,4.2-1.6,7.2s-3.1,4.9-4.8,5.7c-1.4,0.6-3.1,0.6-4.5-0.2
	c-1.5-0.7-2.6-2-2.9-3.7c-0.4-1.7,0.2-4,1.7-7s3.1-4.9,4.8-5.7C201.9,14.2,203.6,14.2,204.9,15z M203.7,17.6
	c-0.4-0.2-0.8-0.2-1.2-0.1c-0.5,0.2-1,0.5-1.3,0.9c-0.9,1.2-1.7,2.4-2.3,3.8c-0.7,1.3-1.2,2.6-1.6,4c-0.2,0.6-0.2,1.2,0,1.8
	c0.2,0.4,0.5,0.7,0.8,0.8c0.4,0.2,0.8,0.2,1.2,0.1c0.5-0.2,1-0.5,1.3-0.9c0.9-1.2,1.7-2.4,2.3-3.8c0.7-1.3,1.2-2.6,1.6-4
	c0.2-0.6,0.2-1.2,0-1.8C204.4,18,204.1,17.7,203.7,17.6z"/>
<path class="st0" d="M211.6,39.3l-2.9-1.9l6.9-10.7c-1.7,0.3-3.5,0.2-5.1-0.3l1.7-2.6c1.1,0.3,2.2,0.3,3.4,0.2
	c1.2-0.1,2.4-0.5,3.4-1.2l2.4,1.5L211.6,39.3z"/>
<path class="st0" d="M218.6,38.4l2.8,1.8c-0.4,0.6-0.6,1.3-0.5,2c0.2,1.3,1.4,2.3,2.7,2.1c0,0,0,0,0,0c0.8-0.1,1.5-0.6,1.9-1.2
	c0.5-0.5,0.8-1.3,0.7-2c0-0.7-0.3-1.3-0.9-1.7c-0.4-0.3-0.9-0.6-1.4-0.8l2-1.9c0.5,0.5,1.2,0.8,2,0.9c0.6,0,1.2-0.3,1.6-0.8
	c0.7-0.7,0.6-1.9-0.1-2.6c-0.1-0.1-0.1-0.1-0.2-0.2c-0.4-0.4-1-0.5-1.6-0.5c-0.7,0.1-1.3,0.4-1.7,0.9L224,32
	c0.7-0.6,1.5-1.1,2.4-1.4c0.8-0.2,1.6-0.2,2.4,0c0.9,0.2,1.7,0.7,2.4,1.3c1.3,0.9,2.1,2.3,2.2,3.8c0.1,1.1-0.2,2.2-0.9,3.1
	c-1,1.2-2.4,1.6-4.4,1.2c1.3,1.5,1.3,3.8,0,5.4c-0.9,1.2-2.3,1.9-3.8,2c-3.1,0.1-5.9-2-6.6-5.1C217.5,41,217.8,39.6,218.6,38.4z"/>
<rect x="0.5" y="335.5" class="st0" width="11.3" height="60.4"/>
<path class="st0" d="M21.6,353.6h10v8l5.5-7.7c2.8-0.9,5.6-1.4,8.5-1.4c12.2,0,14.6,7.7,14.6,16.5v26.8h-10v-24
	c0-6.4-1.2-11.5-9-11.5c-3.4,0.1-6.8,1.2-9.6,3.1v32.4h-10L21.6,353.6z"/>
<path class="st0" d="M87.1,396.4c-1.6,0.4-3.3,0.6-5,0.6c-3.2,0.2-6.3-1-8.5-3.2c-2.6-2.9-2.6-5.9-2.5-9.7l0.2-23.2h-5.5l4.5-7.3
	h1.2v-8l9.9-3v11h9.5v7.3h-9.7L81,379.3c0,4.6,0,6.4,1,8c1.3,1.6,3.2,2.4,5.3,2.2c1.9-0.1,3.8-0.4,5.6-1.1L87.1,396.4z"/>
<path class="st0" d="M127,395.6c-3.3,0.9-6.7,1.4-10.2,1.4c-15.2,0-22.9-9.2-22.9-22c0-13.1,8-22.4,20.4-22.4c3-0.1,6,0.6,8.7,1.8
	c10.2,4.7,10.3,15.9,10.4,21.1h-28.7c0.2,2.7,0.6,7.3,4.1,10.6c2.9,2.7,7,3.7,11,3.7c4.2-0.1,8.2-0.9,12.1-2.6L127,395.6z M123,369
	c-0.1-1.5-0.2-4.7-2.5-7.1c-1.6-1.7-3.8-2.6-6.2-2.6c-5.2,0-8.6,4.1-9.6,9.7L123,369z"/>
<path class="st0" d="M149.5,395.9h-10.3v-42.3h10.3v7.4l4.9-6.9c2.5-1,5.2-1.4,7.9-1.4c1.4,0,2.7,0.2,4,0.6v9.8
	c-2.5-1.5-5.3-2.3-8.2-2.4c-3,0-6,0.9-8.6,2.6L149.5,395.9z"/>
<path class="st0" d="M190.4,396.4c-1.7,0.4-3.4,0.6-5.1,0.6c-3.2,0.2-6.3-1-8.5-3.2c-2.6-2.9-2.6-5.9-2.5-9.7l0.2-23.2h-5.5l4.5-7.3
	h1.1v-8l9.9-3.1v11h9.5v7.3h-9.7l-0.2,18.5c0,4.6,0,6.4,1,8c1.2,1.6,3.2,2.5,5.2,2.3c1.9-0.1,3.8-0.4,5.6-1.1L190.4,396.4z"/>
<path class="st0" d="M230.3,395.6c-3.3,0.9-6.7,1.4-10.2,1.4c-15.2,0-22.9-9.2-22.9-22c0-13.1,8-22.4,20.4-22.4c3-0.1,6,0.6,8.7,1.8
	c10.2,4.7,10.3,15.9,10.4,21.1h-28.7c0.3,2.7,0.6,7.3,4.1,10.6c2.9,2.7,7,3.7,11,3.7c4.2-0.1,8.2-0.9,12.1-2.6L230.3,395.6z
	 M226.3,369c-0.1-1.5-0.2-4.7-2.5-7.1c-1.6-1.7-3.8-2.6-6.2-2.6c-5.2,0-8.6,4.1-9.6,9.7L226.3,369z"/>
<polygon class="st0" points="283.9,395.9 271.5,395.9 252.7,373.6 252.7,395.9 242.6,395.9 242.6,335.5 252.7,335.5 252.7,371.6 
	269.8,353.6 281.5,353.6 263.8,372.4 "/>
<rect x="0.5" y="304.8" class="st0" width="283.5" height="7.1"/>
<text transform="matrix(1 0 0 1 283.9274 282.88)" class="st0 st1 st2">TM</text>
<path class="st0" d="M265,141.8c0,32.6-12.9,63.8-36,86.8l-0.3,0.3l13.4,13.5c55.5-55.2,55.9-144.9,0.7-200.4c-0.5-0.5-1-1-1.5-1.5
	l-8.6,9.9l-3.9,4.5c0.1,0.1,0.1,0.2,0.2,0.2C252,78,265,109.3,265,141.8z"/>
<path class="st0" d="M42.3,242.4l13.4-13.5l-0.3-0.3C7.4,180.7,7.4,103,55.4,55c0,0,0,0,0,0l0.2-0.2l-3.9-4.5l-8.6-9.9
	c-56,54.7-57,144.4-2.3,200.4C41.3,241.4,41.8,241.9,42.3,242.4z"/>
</svg>
